<svg width="130" height="183" viewBox="0 0 130 183" fill="none" xmlns="http://www.w3.org/2000/svg">
<g clip-path="url(#clip0)">
<path d="M65 41.77L59.9216 78.5788L65 143L115.474 124.596V60.1746L65 41.77Z" fill="#0C843C"/>
<path d="M14.5257 60.1746V124.596L65 143V41.77L14.5257 60.1746Z" fill="#12BC56"/>
<path d="M50.4743 103.959L65 78.5788L14.5257 60.1746L0 85.5548L50.4743 103.959Z" fill="#75DA9D"/>
<path d="M79.5257 103.959L65 78.5788L115.474 60.1746L130 85.5548L79.5257 103.959Z" fill="#12BC56"/>
<g clip-path="url(#clip1)">
<path d="M75.4167 7H54.5833C51.1375 7 48.3333 9.80417 48.3333 13.25V50.75C48.3333 54.1958 51.1375 57 54.5833 57H75.4167C78.8625 57 81.6667 54.1958 81.6667 50.75V13.25C81.6667 9.80417 78.8625 7 75.4167 7ZM54.5833 11.1667H75.4167C76.5646 11.1667 77.5 12.1 77.5 13.25V48.6667H52.5V13.25C52.5 12.1 53.4354 11.1667 54.5833 11.1667Z" fill="white"/>
<path d="M56.1458 28.8333C55.2833 28.8333 54.5833 28.1333 54.5833 27.2708V24.1458C54.5833 22.1354 56.2188 20.5 58.2292 20.5H61.3542C62.2167 20.5 62.9167 21.2 62.9167 22.0625C62.9167 22.925 62.2167 23.625 61.3542 23.625H58.2292C57.9417 23.625 57.7083 23.8583 57.7083 24.1458V27.2708C57.7083 28.1333 57.0083 28.8333 56.1458 28.8333Z" fill="#12BC56"/>
<path d="M73.8542 28.8333C72.9917 28.8333 72.2917 28.1333 72.2917 27.2708V24.1458C72.2917 23.8583 72.0583 23.625 71.7708 23.625H68.6458C67.7833 23.625 67.0833 22.925 67.0833 22.0625C67.0833 21.2 67.7833 20.5 68.6458 20.5H71.7708C73.7812 20.5 75.4167 22.1354 75.4167 24.1458V27.2708C75.4167 28.1333 74.7167 28.8333 73.8542 28.8333Z" fill="#12BC56"/>
<path d="M61.3542 41.3333H58.2292C56.2188 41.3333 54.5833 39.6979 54.5833 37.6875V34.5625C54.5833 33.7 55.2833 33 56.1458 33C57.0083 33 57.7083 33.7 57.7083 34.5625V37.6875C57.7083 37.975 57.9417 38.2083 58.2292 38.2083H61.3542C62.2167 38.2083 62.9167 38.9083 62.9167 39.7708C62.9167 40.6333 62.2167 41.3333 61.3542 41.3333Z" fill="#12BC56"/>
<path d="M71.7708 41.3333H68.6458C67.7833 41.3333 67.0833 40.6333 67.0833 39.7708C67.0833 38.9083 67.7833 38.2083 68.6458 38.2083H71.7708C72.0583 38.2083 72.2917 37.975 72.2917 37.6875V34.5625C72.2917 33.7 72.9917 33 73.8542 33C74.7167 33 75.4167 33.7 75.4167 34.5625V37.6875C75.4167 39.6979 73.7812 41.3333 71.7708 41.3333Z" fill="#12BC56"/>
</g>
</g>
<path d="M48.394 168.948C49.4207 169.139 50.2493 169.513 50.88 170.07C51.5253 170.613 51.848 171.449 51.848 172.578C51.848 174.177 51.276 175.313 50.132 175.988C48.988 176.663 47.3967 177 45.358 177H40.606V161.776H44.764C46.8467 161.776 48.438 162.084 49.538 162.7C50.638 163.316 51.188 164.306 51.188 165.67C51.188 166.565 50.9167 167.291 50.374 167.848C49.846 168.391 49.186 168.757 48.394 168.948ZM43.84 164.108V167.958H45.424C46.216 167.958 46.8247 167.797 47.25 167.474C47.6753 167.137 47.888 166.631 47.888 165.956C47.888 165.281 47.6607 164.805 47.206 164.526C46.7513 164.247 46.04 164.108 45.072 164.108H43.84ZM45.38 174.602C46.392 174.602 47.162 174.455 47.69 174.162C48.218 173.854 48.482 173.282 48.482 172.446C48.482 170.921 47.5433 170.158 45.666 170.158H43.84V174.602H45.38ZM63.9312 170.906C63.9312 171.053 63.9092 171.456 63.8652 172.116H56.5832C56.6858 173.172 56.9718 173.92 57.4412 174.36C57.9105 174.8 58.5485 175.02 59.3552 175.02C59.8538 175.02 60.3232 174.939 60.7632 174.778C61.2032 174.617 61.6798 174.36 62.1932 174.008L63.4912 175.768C62.1858 176.824 60.7118 177.352 59.0692 177.352C57.2358 177.352 55.8278 176.802 54.8452 175.702C53.8625 174.602 53.3712 173.113 53.3712 171.236C53.3712 170.048 53.5765 168.985 53.9872 168.046C54.4125 167.093 55.0212 166.345 55.8132 165.802C56.6198 165.259 57.5732 164.988 58.6732 164.988C60.3305 164.988 61.6212 165.509 62.5452 166.55C63.4692 167.591 63.9312 169.043 63.9312 170.906ZM60.8292 170.026C60.8292 168.09 60.1325 167.122 58.7392 167.122C58.0938 167.122 57.5878 167.364 57.2212 167.848C56.8692 168.317 56.6565 169.087 56.5832 170.158H60.8292V170.026ZM76.0483 170.906C76.0483 171.053 76.0263 171.456 75.9823 172.116H68.7003C68.803 173.172 69.089 173.92 69.5583 174.36C70.0277 174.8 70.6657 175.02 71.4723 175.02C71.971 175.02 72.4403 174.939 72.8803 174.778C73.3203 174.617 73.797 174.36 74.3103 174.008L75.6083 175.768C74.303 176.824 72.829 177.352 71.1863 177.352C69.353 177.352 67.945 176.802 66.9623 175.702C65.9797 174.602 65.4883 173.113 65.4883 171.236C65.4883 170.048 65.6937 168.985 66.1043 168.046C66.5297 167.093 67.1383 166.345 67.9303 165.802C68.737 165.259 69.6903 164.988 70.7903 164.988C72.4477 164.988 73.7383 165.509 74.6623 166.55C75.5863 167.591 76.0483 169.043 76.0483 170.906ZM72.9463 170.026C72.9463 168.09 72.2497 167.122 70.8563 167.122C70.211 167.122 69.705 167.364 69.3383 167.848C68.9863 168.317 68.7737 169.087 68.7003 170.158H72.9463V170.026ZM84.6015 164.988C86.0682 164.988 87.1535 165.531 87.8575 166.616C88.5762 167.687 88.9355 169.197 88.9355 171.148C88.9355 172.336 88.7522 173.399 88.3855 174.338C88.0189 175.277 87.4835 176.017 86.7795 176.56C86.0902 177.088 85.2689 177.352 84.3155 177.352C83.1275 177.352 82.1669 176.934 81.4335 176.098V181.488L78.3095 181.84V165.34H81.0595L81.2135 166.704C81.6535 166.132 82.1669 165.707 82.7535 165.428C83.3549 165.135 83.9709 164.988 84.6015 164.988ZM83.3915 175.02C84.9169 175.02 85.6795 173.737 85.6795 171.17C85.6795 169.762 85.5109 168.765 85.1735 168.178C84.8362 167.591 84.3229 167.298 83.6335 167.298C83.1935 167.298 82.7829 167.437 82.4015 167.716C82.0349 167.98 81.7122 168.339 81.4335 168.794V173.876C81.9322 174.639 82.5849 175.02 83.3915 175.02Z" fill="white"/>
<defs>
<clipPath id="clip0">
<rect width="130" height="143" fill="white"/>
</clipPath>
<clipPath id="clip1">
<rect width="50" height="50" fill="white" transform="translate(40 8)"/>
</clipPath>
</defs>
</svg>
