<svg width="14" height="14" viewBox="0 0 14 14" fill="none" xmlns="http://www.w3.org/2000/svg">
<g clip-path="url(#clip0)">
<path d="M2.33333 1.3999H0.466667C0.209067 1.3999 0 1.60897 0 1.86657V3.73324C0 3.99084 0.209067 4.1999 0.466667 4.1999C0.724267 4.1999 0.933333 3.99084 0.933333 3.73324V2.33324H2.33333C2.59093 2.33324 2.8 2.12417 2.8 1.86657C2.8 1.60897 2.59093 1.3999 2.33333 1.3999Z" fill="#12BC56"/>
<path d="M13.5333 9.7998C13.2757 9.7998 13.0667 10.0089 13.0667 10.2665V11.6665H11.6667C11.4091 11.6665 11.2 11.8755 11.2 12.1331C11.2 12.3907 11.4091 12.5998 11.6667 12.5998H13.5333C13.7909 12.5998 14 12.3907 14 12.1331V10.2665C14 10.0089 13.7909 9.7998 13.5333 9.7998Z" fill="#12BC56"/>
<path d="M13.5333 1.3999H11.6667C11.4091 1.3999 11.2 1.60897 11.2 1.86657C11.2 2.12417 11.4091 2.33324 11.6667 2.33324H13.0667V3.73324C13.0667 3.99084 13.2757 4.1999 13.5333 4.1999C13.7909 4.1999 14 3.99084 14 3.73324V1.86657C14 1.60897 13.7909 1.3999 13.5333 1.3999Z" fill="#12BC56"/>
<path d="M2.33333 11.6665H0.933333V10.2665C0.933333 10.0089 0.724267 9.7998 0.466667 9.7998C0.209067 9.7998 0 10.0089 0 10.2665V12.1331C0 12.3907 0.209067 12.5998 0.466667 12.5998H2.33333C2.59093 12.5998 2.8 12.3907 2.8 12.1331C2.8 11.8755 2.59093 11.6665 2.33333 11.6665Z" fill="#12BC56"/>
<path d="M2.8 3.2666H1.86667V10.7333H2.8V3.2666Z" fill="#12BC56"/>
<path d="M4.66667 3.2666H3.73334V8.8666H4.66667V3.2666Z" fill="#12BC56"/>
<path d="M6.53334 3.2666H5.60001V8.8666H6.53334V3.2666Z" fill="#12BC56"/>
<path d="M8.39999 3.2666H7.46666V10.7333H8.39999V3.2666Z" fill="#12BC56"/>
<path d="M10.2667 3.2666H9.33333V8.8666H10.2667V3.2666Z" fill="#12BC56"/>
<path d="M12.1333 3.2666H11.2V10.7333H12.1333V3.2666Z" fill="#12BC56"/>
<path d="M4.66667 9.7998H3.73334V10.7331H4.66667V9.7998Z" fill="#12BC56"/>
<path d="M6.53334 9.7998H5.60001V10.7331H6.53334V9.7998Z" fill="#12BC56"/>
<path d="M10.2667 9.7998H9.33333V10.7331H10.2667V9.7998Z" fill="#12BC56"/>
</g>
<defs>
<clipPath id="clip0">
<rect width="14" height="14" fill="white"/>
</clipPath>
</defs>
</svg>
