<svg width="22" height="22" viewBox="0 0 22 22" fill="none" xmlns="http://www.w3.org/2000/svg">
<path d="M4.56609 7.01108H1.36621V3.22266C1.36621 3.04468 1.5105 2.90039 1.68848 2.90039H4.24383C4.42181 2.90039 4.56609 3.04468 4.56609 3.22266V7.01108Z" fill="#FFCF5D"/>
<path d="M9.05505 7.01108H5.85516V3.22266C5.85516 3.04468 5.99945 2.90039 6.17743 2.90039H8.73278C8.91076 2.90039 9.05505 3.04468 9.05505 3.22266V7.01108Z" fill="#FFCF5D"/>
<path d="M13.544 7.01108H10.3441V3.22266C10.3441 3.04468 10.4884 2.90039 10.6664 2.90039H13.2217C13.3997 2.90039 13.544 3.04468 13.544 3.22266V7.01108Z" fill="#FFCF5D"/>
<path d="M4.24383 2.90039H3.27703V5.72202H1.36621V7.01108H4.56609V3.22266C4.56609 3.04468 4.42181 2.90039 4.24383 2.90039Z" fill="#FFB545"/>
<path d="M8.73278 2.90039H7.76598V5.72202H5.85516V7.01108H9.05505V3.22266C9.05505 3.04468 8.91076 2.90039 8.73278 2.90039Z" fill="#FFB545"/>
<path d="M13.2217 2.90039H12.2549V5.72202H10.3441V7.01108H13.544V3.22266C13.544 3.04468 13.3997 2.90039 13.2217 2.90039Z" fill="#FFB545"/>
<path d="M16.6055 4.18945V3.22266C16.6055 3.04468 16.4612 2.90039 16.2832 2.90039H15.6387C15.4607 2.90039 15.3164 3.04468 15.3164 3.22266V4.18945C15.0494 4.18945 14.833 4.40589 14.833 4.67285V7.01108H17.0889V4.67285C17.0889 4.40584 16.8724 4.18945 16.6055 4.18945Z" fill="#95D6A4"/>
<path d="M20.1504 4.18945V3.22266C20.1504 3.04468 20.0061 2.90039 19.8281 2.90039H19.1836C19.0056 2.90039 18.8613 3.04468 18.8613 3.22266V4.18945C18.5944 4.18945 18.3779 4.40589 18.3779 4.67285V7.01108H20.6338V4.67285C20.6338 4.40584 20.4174 4.18945 20.1504 4.18945Z" fill="#95D6A4"/>
<path d="M10.3555 9.58936H8.44469C8.08873 9.58936 7.80016 9.87793 7.80016 10.2339C7.80016 9.87793 7.51158 9.58936 7.15563 9.58936H5.2448C4.88885 9.58936 4.60027 9.87793 4.60027 10.2339C4.60027 9.87793 4.3117 9.58936 3.95574 9.58936H2.04492C1.68897 9.58936 1.40039 9.87793 1.40039 10.2339V13.7001H11V10.2339C11 9.87793 10.7115 9.58936 10.3555 9.58936Z" fill="#5C87BD"/>
<path d="M10.3555 9.58936H9.71098V12.411H7.80016V10.2339C7.80016 9.87793 7.51158 9.58936 7.15563 9.58936H6.51109V12.411H4.60027V10.2339C4.60027 9.87793 4.3117 9.58936 3.95574 9.58936H3.31121V12.411H1.40039V13.7001H11V10.2339C11 9.87793 10.7115 9.58936 10.3555 9.58936Z" fill="#456EA2"/>
<path d="M19.955 10.4487H18.4739C18.118 10.4487 17.8294 10.7373 17.8294 11.0933C17.8294 10.7373 17.5408 10.4487 17.1849 10.4487H15.7037C15.3478 10.4487 15.0592 10.7373 15.0592 11.0933C15.0592 10.7373 14.7706 10.4487 14.4147 10.4487H12.9336C12.5776 10.4487 12.2891 10.7373 12.2891 11.0933V13.7H20.5996V11.0933C20.5996 10.7373 20.311 10.4487 19.955 10.4487Z" fill="#FFF9EB"/>
<path d="M19.955 10.4487H19.3105V12.4109H17.8294V11.0933C17.8294 10.7373 17.5408 10.4487 17.1849 10.4487H16.5403V12.4109H15.0592V11.0933C15.0592 10.7373 14.7706 10.4487 14.4147 10.4487H13.7702V12.4109H12.2891V13.7H20.5996V11.0933C20.5996 10.7373 20.311 10.4487 19.955 10.4487Z" fill="#D3CDBF"/>
<path d="M15.0592 17.6886V16.9224C15.0592 16.5664 14.7707 16.2778 14.4147 16.2778H12.289C11.9331 16.2778 11.6445 16.5664 11.6445 16.9224C11.6445 16.5664 11.3559 16.2778 11 16.2778H8.87431C8.51836 16.2778 8.22978 16.5664 8.22978 16.9224C8.22978 16.5664 7.9412 16.2778 7.58525 16.2778H5.45959C5.10363 16.2778 4.81506 16.5664 4.81506 16.9224C4.81506 16.5664 4.52648 16.2778 4.17052 16.2778H2.04486C1.68891 16.2778 1.40033 16.5664 1.40033 16.9224V17.6886C1.40033 18.0446 1.68891 18.3332 2.04486 18.3332C1.68891 18.3332 1.40033 18.6217 1.40033 18.9777V20.3885H4.81506H8.22978H11.6445H15.0592V18.9777C15.0592 18.6217 14.7707 18.3332 14.4147 18.3332C14.7707 18.3332 15.0592 18.0446 15.0592 17.6886Z" fill="#8B9BA9"/>
<path d="M15.0592 18.0109V16.9224C15.0592 16.5664 14.7707 16.2778 14.4147 16.2778H13.7702V17.0441H11.6445V16.9224C11.6445 16.5664 11.3559 16.2778 11 16.2778H10.3554V17.0441H8.22978V16.9224C8.22978 16.5664 7.9412 16.2778 7.58525 16.2778H6.94072V17.0441H4.81506V16.9224C4.81506 16.5664 4.52648 16.2778 4.17052 16.2778H3.52599V17.0441H1.40033V17.6886C1.40033 18.0446 1.68891 18.3332 2.04486 18.3332H3.52599V19.0994H1.40033V20.3885H15.0592V18.9777C15.0592 18.6217 14.7707 18.3332 14.4147 18.3332H14.737C14.9149 18.3332 15.0592 18.1889 15.0592 18.0109ZM6.94072 19.0994H4.81506V18.3332H6.94072V19.0994ZM10.3554 19.0994H8.22978V18.3332H10.3554V19.0994ZM13.7702 19.0994H11.6445V18.3332H13.7702V19.0994Z" fill="#6C7A88"/>
<path d="M19.0225 17.5669V16.6001C19.0225 16.4221 18.8782 16.2778 18.7002 16.2778H18.0557C17.8777 16.2778 17.7334 16.4221 17.7334 16.6001V17.5669C17.4664 17.5669 17.25 17.7833 17.25 18.0503V20.3885H19.5059V18.0503C19.5059 17.7833 19.2894 17.5669 19.0225 17.5669Z" fill="#95D6A4"/>
<path d="M21.3555 0.322266H0.644531C0.466555 0.322266 0.322266 0.466555 0.322266 0.644531V1.28906C0.322266 1.46704 0.466555 1.61133 0.644531 1.61133H21.3555C21.5334 1.61133 21.6777 1.46704 21.6777 1.28906V0.644531C21.6777 0.466555 21.5334 0.322266 21.3555 0.322266Z" fill="#CE795F"/>
<path d="M21.3555 20.3887H0.644531C0.466555 20.3887 0.322266 20.533 0.322266 20.7109V21.3555C0.322266 21.5334 0.466555 21.6777 0.644531 21.6777H21.3555C21.5334 21.6777 21.6777 21.5334 21.6777 21.3555V20.7109C21.6777 20.533 21.5334 20.3887 21.3555 20.3887Z" fill="#CE795F"/>
<path d="M21.3555 7.01123H0.644531C0.466555 7.01123 0.322266 7.15552 0.322266 7.3335V7.97803C0.322266 8.156 0.466555 8.30029 0.644531 8.30029H21.3555C21.5334 8.30029 21.6777 8.156 21.6777 7.97803V7.3335C21.6777 7.15552 21.5334 7.01123 21.3555 7.01123Z" fill="#CE795F"/>
<path d="M21.3555 13.6997H0.644531C0.466555 13.6997 0.322266 13.844 0.322266 14.022V14.6665C0.322266 14.8445 0.466555 14.9888 0.644531 14.9888H21.3555C21.5334 14.9888 21.6777 14.8445 21.6777 14.6665V14.022C21.6777 13.844 21.5334 13.6997 21.3555 13.6997Z" fill="#CE795F"/>
<path d="M21.3555 0H0.644531C0.28918 0 0 0.28918 0 0.644531V1.28906C0 1.64441 0.28918 1.93359 0.644531 1.93359H20.0664C20.2443 1.93359 20.3887 1.78922 20.3887 1.61133C20.3887 1.43344 20.2443 1.28906 20.0664 1.28906H0.644531V0.644531H21.3555V1.28906C21.1775 1.28906 21.0332 1.43387 21.0332 1.61133C21.0332 1.78922 21.1775 1.93359 21.3555 1.93359C21.6876 1.93316 21.963 1.68395 21.9966 1.3548C21.997 1.35094 21.9974 1.3475 21.9979 1.34363C21.9991 1.32473 22 1.30668 22 1.28906V0.644531C22 0.28918 21.7108 0 21.3555 0Z" fill="black"/>
<path d="M21.3555 20.0663H19.8281V18.0503C19.8281 17.7206 19.629 17.4364 19.3447 17.3119V16.2778C19.3447 16.0999 19.2005 15.9556 19.0225 15.9556H17.7334C17.5554 15.9556 17.4112 16.0999 17.4112 16.2778V17.3119C17.1269 17.4364 16.9278 17.7206 16.9278 18.0503V20.0663H15.3816V18.9777C15.3816 18.7303 15.288 18.5044 15.1346 18.3332C15.288 18.162 15.3816 17.9361 15.3816 17.6887V16.9224C15.3816 16.3893 14.9478 15.9556 14.4148 15.9556H12.2891C12.0416 15.9556 11.8157 16.0492 11.6445 16.2026C11.4733 16.0491 11.2475 15.9556 11 15.9556H8.87434C8.62692 15.9556 8.40099 16.0492 8.2298 16.2026C8.05862 16.0492 7.83269 15.9556 7.58527 15.9556H5.45961C5.2122 15.9556 4.98627 16.0492 4.81508 16.2026C4.64389 16.0492 4.41796 15.9556 4.17055 15.9556H2.04488C1.51177 15.9556 1.07809 16.3893 1.07809 16.9224V17.6887C1.07809 17.9361 1.17163 18.162 1.32503 18.3332C1.17159 18.5044 1.07809 18.7303 1.07809 18.9777V20.0663H0.644531C0.28918 20.0663 0 20.3554 0 20.7108V21.3553C0 21.3738 0.000859375 21.3923 0.00214844 21.4099C0.0158984 21.5706 0.0889453 21.7197 0.207539 21.8288C0.326562 21.9388 0.48168 21.9994 0.644531 21.9999C0.822422 21.9999 0.966797 21.8555 0.966797 21.6776C0.966797 21.5001 0.822422 21.3558 0.644961 21.3553C0.644531 21.3553 0.644531 21.3549 0.644531 21.3549V20.7108H1.40039H4.81512H8.22985H11.6445H15.0593H17.25H19.5059H21.3555V21.3553H1.93359C1.7557 21.3553 1.61133 21.4997 1.61133 21.6776C1.61133 21.8555 1.7557 21.9999 1.93359 21.9999H21.3555C21.7108 21.9999 22 21.7107 22 21.3553V20.7108C22 20.3554 21.7108 20.0663 21.3555 20.0663ZM12.2891 16.6001H14.4148C14.5925 16.6001 14.737 16.7446 14.737 16.9224V17.6886C14.737 17.8663 14.5925 18.0109 14.4148 18.0109H11.9668V16.9224C11.9668 16.7446 12.1113 16.6001 12.2891 16.6001ZM8.87438 16.6001H11C11.1777 16.6001 11.3223 16.7446 11.3223 16.9224V18.0109H8.55211V16.9224C8.55211 16.7446 8.69666 16.6001 8.87438 16.6001ZM5.13739 18.6555H7.90758V20.0663H5.13739V18.6555ZM5.45965 16.6001H7.58532C7.76304 16.6001 7.90758 16.7446 7.90758 16.9224V18.0109H5.13739V16.9224C5.13739 16.7446 5.28193 16.6001 5.45965 16.6001ZM1.72266 16.9224C1.72266 16.7446 1.86721 16.6001 2.04493 16.6001H4.17059C4.34831 16.6001 4.49286 16.7446 4.49286 16.9224V18.0109H2.04493C1.86721 18.0109 1.72266 17.8663 1.72266 17.6886V16.9224ZM1.72266 20.0663V18.9777C1.72266 18.8 1.86721 18.6555 2.04493 18.6555H4.49286V20.0663H1.72266ZM8.55211 18.6555H11.3223V20.0663H8.55211V18.6555ZM11.9668 20.0663V18.6555H14.4148C14.5925 18.6555 14.737 18.8 14.737 18.9777V20.0663H11.9668ZM17.5723 20.0663V18.0503C17.5723 17.9614 17.6446 17.8892 17.7334 17.8892C17.9114 17.8892 18.0557 17.7449 18.0557 17.5669V16.6001H18.7002V17.5669C18.7002 17.7449 18.8445 17.8892 19.0225 17.8892C19.1113 17.8892 19.1836 17.9614 19.1836 18.0503V20.0663H17.5723Z" fill="black"/>
<path d="M21.3555 6.68894H20.9561V4.67285C20.9561 4.34311 20.757 4.059 20.4727 3.93448V2.90039C20.4727 2.72241 20.3284 2.57812 20.1504 2.57812H18.8613C18.6833 2.57812 18.5391 2.72241 18.5391 2.90039V3.93448C18.2548 4.059 18.0557 4.34311 18.0557 4.67285V6.68894H17.4112V4.67285C17.4112 4.34311 17.212 4.059 16.9278 3.93448V2.90039C16.9278 2.72241 16.7835 2.57812 16.6055 2.57812H15.3164C15.1384 2.57812 14.9942 2.72241 14.9942 2.90039V3.93448C14.7099 4.059 14.5108 4.34311 14.5108 4.67285V6.68894H13.8662V2.90039C13.8662 2.72241 13.722 2.57812 13.544 2.57812H10.3441C10.1661 2.57812 10.0218 2.72241 10.0218 2.90039V6.68894H9.37729V2.90039C9.37729 2.72241 9.233 2.57812 9.05502 2.57812H5.85514C5.67716 2.57812 5.53287 2.72241 5.53287 2.90039V6.68894H4.88834V2.90039C4.88834 2.72241 4.74405 2.57812 4.56607 2.57812H1.36619C1.18821 2.57812 1.04393 2.72241 1.04393 2.90039V6.68894H0.644531C0.28918 6.68894 0 6.97812 0 7.33348V7.97801C0 7.99648 0.000859375 8.01496 0.00214844 8.03258C0.0158984 8.19328 0.0889453 8.34195 0.207539 8.45152C0.326562 8.56152 0.48168 8.62211 0.644531 8.62254C0.822422 8.62254 0.966797 8.47773 0.966797 8.30027C0.966797 8.12238 0.822422 7.97801 0.644961 7.97801C0.644531 7.97758 0.644531 7.97758 0.644531 7.97758V7.33348H21.3555V7.97801H1.93359C1.7557 7.97801 1.61133 8.12238 1.61133 8.30027C1.61133 8.47773 1.7557 8.62254 1.93359 8.62254H1.93445H21.3555C21.7108 8.62211 22 8.33293 22 7.97801V7.33348C22 6.97812 21.7108 6.68894 21.3555 6.68894ZM18.7002 4.67285C18.7002 4.58399 18.7725 4.51172 18.8613 4.51172C19.0394 4.51172 19.1836 4.36743 19.1836 4.18945V3.22266H19.8281V4.18945C19.8281 4.36743 19.9724 4.51172 20.1504 4.51172C20.2392 4.51172 20.3115 4.58399 20.3115 4.67285V6.68882H18.7002V4.67285ZM15.1553 4.67285C15.1553 4.58399 15.2276 4.51172 15.3164 4.51172C15.4944 4.51172 15.6387 4.36743 15.6387 4.18945V3.22266H16.2832V4.18945C16.2832 4.36743 16.4275 4.51172 16.6055 4.51172C16.6943 4.51172 16.7666 4.58399 16.7666 4.67285V6.68882H15.1553V4.67285ZM10.6663 3.22266H13.2217V6.68882H10.6663V3.22266ZM6.1774 3.22266H8.73275V6.68882H6.1774V3.22266ZM1.68846 3.22266H4.24381V6.68882H1.68846V3.22266Z" fill="black"/>
<path d="M21.3555 13.3776H20.9219V11.0933C20.9219 10.5602 20.4881 10.1265 19.9551 10.1265H18.4739C18.2265 10.1265 18.0006 10.22 17.8294 10.3735C17.6582 10.22 17.4323 10.1265 17.1849 10.1265H15.7038C15.4564 10.1265 15.2304 10.22 15.0593 10.3735C14.8881 10.22 14.6621 10.1265 14.4147 10.1265H12.9336C12.4005 10.1265 11.9668 10.5602 11.9668 11.0933V13.3776H11.3223V10.2339C11.3223 9.70077 10.8886 9.26709 10.3555 9.26709H8.44465C8.19723 9.26709 7.9713 9.36063 7.80012 9.51403C7.62893 9.36059 7.403 9.26709 7.15559 9.26709H5.24477C4.99735 9.26709 4.77142 9.36063 4.60023 9.51403C4.42905 9.36059 4.20312 9.26709 3.9557 9.26709H2.04488C1.51177 9.26709 1.07809 9.70077 1.07809 10.2339V13.3776H0.644531C0.28918 13.3781 0 13.6672 0 14.0222V14.6667C0 15.022 0.28918 15.3112 0.644531 15.3112H20.0664C20.2443 15.3112 20.3887 15.1668 20.3887 14.989C20.3887 14.8115 20.2443 14.6667 20.0664 14.6667H0.644531V14.0222H1.39747C1.39846 14.0222 1.39941 14.0223 1.40039 14.0223H4.60028H7.80016H11C11.001 14.0223 11.002 14.0222 11.003 14.0222H12.2862C12.2872 14.0222 12.2882 14.0223 12.2891 14.0223H15.0593H17.8295H20.5997C20.6007 14.0223 20.6016 14.0222 20.6026 14.0222H21.3555V14.6667C21.1775 14.6667 21.0332 14.8115 21.0332 14.989C21.0332 15.1668 21.1775 15.3112 21.3555 15.3112C21.6876 15.3108 21.963 15.062 21.9966 14.7324C21.997 14.729 21.9974 14.7251 21.9979 14.7217C21.9991 14.7028 22 14.6843 22 14.6667V14.0222C22 13.6672 21.7108 13.3781 21.3555 13.3776ZM18.4739 10.771H19.9551C20.1328 10.771 20.2773 10.9156 20.2773 11.0933V13.3776H18.1517V11.0933C18.1517 10.9156 18.2963 10.771 18.4739 10.771ZM15.7038 10.771H17.1849C17.3626 10.771 17.5072 10.9156 17.5072 11.0933V13.3776H15.3816V11.0933C15.3816 10.9156 15.5261 10.771 15.7038 10.771ZM12.6114 11.0933C12.6114 10.9156 12.7559 10.771 12.9336 10.771H14.4148C14.5925 10.771 14.737 10.9156 14.737 11.0933V13.3776H12.6114V11.0933ZM8.44469 9.91166H10.3555C10.5332 9.91166 10.6778 10.0562 10.6778 10.2339V13.3777H8.12243V10.2339C8.12243 10.0562 8.26697 9.91166 8.44469 9.91166ZM5.24481 9.91166H7.15563C7.33335 9.91166 7.47789 10.0562 7.47789 10.2339V13.3777H4.92254V10.2339C4.92254 10.0562 5.06709 9.91166 5.24481 9.91166ZM1.72266 10.2339C1.72266 10.0562 1.86721 9.91166 2.04493 9.91166H3.95575C4.13346 9.91166 4.27801 10.0562 4.27801 10.2339V13.3777H1.72266V10.2339Z" fill="black"/>
</svg>
