<svg width="24" height="24" viewBox="0 0 24 24" fill="none" xmlns="http://www.w3.org/2000/svg">
<path d="M22.5 17.25V21.75C22.5 22.1625 22.1625 22.5 21.75 22.5H17.25C16.8375 22.5 16.5 22.1625 16.5 21.75V17.25C16.5 16.8375 16.8375 16.5 17.25 16.5H18H18.75V18H20.25V16.5H21.75C22.1625 16.5 22.5 16.8375 22.5 17.25Z" fill="#D3A06C"/>
<path d="M23.25 15.75C23.25 16.1625 22.9125 16.5 22.5 16.5H21.75H20.25H18.75H18C17.5875 16.5 17.25 16.1625 17.25 15.75V11.25C17.25 10.8375 17.5875 10.5 18 10.5H19.5V12H21V10.5H21.75H22.5C22.9125 10.5 23.25 10.8375 23.25 11.25V15.75Z" fill="#D3A06C"/>
<path d="M17.25 11.25V15.75C17.25 16.1625 16.9125 16.5 16.5 16.5H15V14.25C15 13.8375 14.6625 13.5 14.25 13.5H11.25V11.25C11.25 10.8375 11.5875 10.5 12 10.5H12.75H13.5V12H15V10.5H16.5C16.9125 10.5 17.25 10.8375 17.25 11.25Z" fill="#D3A06C"/>
<path d="M22.5 1.5V9.75C22.5 10.1625 22.1625 10.5 21.75 10.5H21H19.5H18H16.5H15H13.5H12.75C12.3375 10.5 12 10.1625 12 9.75V1.5C12 1.0875 12.3375 0.75 12.75 0.75H15.75V3H18.75V0.75H21.75C22.1625 0.75 22.5 1.0875 22.5 1.5Z" fill="#D3A06C"/>
<path d="M15.75 0.75H18.75V3H15.75V0.75Z" fill="#B27946"/>
<path d="M13.5 10.5H15V12H13.5V10.5Z" fill="#B27946"/>
<path d="M19.5 10.5H21V12H19.5V10.5Z" fill="#B27946"/>
<path d="M18.75 16.5H20.25V18H18.75V16.5Z" fill="#B27946"/>
<path d="M7.3125 3.75C8.24625 3.75 9 4.50375 9 5.4375C9 5.9025 8.8125 6.32625 8.505 6.63C8.20125 6.9375 7.7775 7.125 7.3125 7.125H6.8325H6.75H4.875C4.56375 7.125 4.2825 7.2525 4.08 7.455C3.8775 7.6575 3.75 7.93875 3.75 8.25V9C3.54375 9 3.35625 9.0825 3.22125 9.22125C3.0825 9.35625 3 9.54375 3 9.75V9.81375C3 10.0125 3.07875 10.2038 3.22125 10.3463L3.75 10.875V12.75L3.31125 12.5325C1.74375 11.745 0.75 10.14 0.75 8.385C0.75 7.1025 1.2675 5.9475 2.1075 5.1075C2.9475 4.2675 4.1025 3.75 5.385 3.75H7.3125Z" fill="#656D78"/>
<path d="M7.5 21.2139V23.2501H0.75V17.7039C0.75 18.2739 0.87375 18.8289 1.10625 19.3351C1.33875 19.8414 1.68 20.2989 2.11125 20.6701L2.28 20.8089C2.445 20.9514 2.62125 21.0789 2.80875 21.1914C3.4125 21.5551 4.10625 21.7501 4.81875 21.7501H5.32125C5.77125 21.7501 6.2175 21.6714 6.6375 21.5214L7.5 21.2139Z" fill="#4FC1E9"/>
<path d="M4.5 19.5L2.80875 21.1912C2.62125 21.0788 2.445 20.9513 2.28 20.8088L2.11125 20.67C1.68 20.2987 1.33875 19.8413 1.10625 19.335C0.87375 18.8288 0.75 18.2737 0.75 17.7037C0.75 16.0762 1.75875 14.6213 3.28125 14.0513L3.75 13.875C4.6425 14.4112 5.4 15.1125 6 15.9225C6.25125 16.2637 6.4725 16.6275 6.66375 17.0062C6.9375 17.5425 7.1475 18.1125 7.29 18.7013V18.705L4.5 19.5Z" fill="#4FC1E9"/>
<path d="M10.6275 16.7062C10.3125 16.8112 10.0612 17.0625 9.95625 17.3775L9.75 18V16.125V15H10.5H14.25C14.4563 15 14.6437 14.9175 14.7787 14.7787C14.9175 14.6437 15 14.4563 15 14.25V16.5V22.5C15 22.9125 14.6625 23.25 14.25 23.25H9.75V20.4075L12.72 19.3425C13.1812 19.215 13.5 18.795 13.5 18.315C13.5 18.0225 13.38 17.7525 13.1887 17.5613C12.9975 17.37 12.7275 17.25 12.435 17.25H12L11.715 16.965C11.43 16.68 11.01 16.5787 10.6275 16.7062Z" fill="#FFEAA7"/>
<path d="M14.25 13.5C14.6625 13.5 15 13.8375 15 14.25C15 14.4563 14.9175 14.6437 14.7787 14.7787C14.6437 14.9175 14.4562 15 14.25 15H10.5V13.5H11.25H14.25Z" fill="#E6E9ED"/>
<path d="M9.75001 16.125V18L7.29001 18.7013C7.14751 18.1125 6.93751 17.5425 6.66376 17.0062L9.75001 16.125Z" fill="#F0D0B4"/>
<path d="M13.1887 17.5612C13.38 17.7524 13.5 18.0224 13.5 18.3149C13.5 18.7949 13.1812 19.2149 12.72 19.3424L9.75 20.4074L7.5 21.2137L6.6375 21.5212C6.2175 21.6712 5.77125 21.7499 5.32125 21.7499H4.81875C4.10625 21.7499 3.4125 21.5549 2.80875 21.1912L4.5 19.4999L7.29 18.7049V18.7012L9.75 17.9999L9.95625 17.3774C10.0612 17.0624 10.3125 16.8112 10.6275 16.7062C11.01 16.5787 11.43 16.6799 11.715 16.9649L12 17.2499H12.435C12.7275 17.2499 12.9975 17.3699 13.1887 17.5612Z" fill="#F0D0B4"/>
<path d="M6 12.75V15.9225C5.4 15.1125 4.6425 14.4113 3.75 13.875V12.75V10.875L3.22125 10.3463C3.07875 10.2038 3 10.0125 3 9.81375V9.75C3 9.54375 3.0825 9.35625 3.22125 9.22125C3.35625 9.0825 3.54375 9 3.75 9V8.25C3.75 7.93875 3.8775 7.6575 4.08 7.455C4.2825 7.2525 4.56375 7.125 4.875 7.125H6.75H6.8325C7.25625 7.125 7.6425 7.36125 7.8375 7.74C8.1675 8.385 8.625 9.40875 8.625 10.125L7.5 10.5V11.4713C7.5 11.8088 7.365 12.135 7.125 12.375C6.885 12.615 6.55875 12.75 6.22125 12.75H6Z" fill="#F0D0B4"/>
<path d="M22.7925 10.1685C22.8446 10.0387 22.875 9.89812 22.875 9.75V1.5C22.875 0.87975 22.3703 0.375 21.75 0.375H12.75C12.1298 0.375 11.625 0.87975 11.625 1.5V9.75C11.625 9.89812 11.6554 10.0387 11.7075 10.1685C11.2294 10.2979 10.875 10.7314 10.875 11.25V13.125H10.125V14.625H9.375V15.8419L6.84375 16.5653C6.70013 16.3084 6.54525 16.0582 6.375 15.8186V13.1104C6.75787 13.0747 7.11487 12.9161 7.3905 12.6405C7.70288 12.3278 7.875 11.9119 7.875 11.4698V10.7704L9 10.3954V10.125C9 9.3495 8.5485 8.30625 8.17013 7.56787C8.133 7.4955 8.0895 7.42838 8.04263 7.36425C8.82 7.06838 9.375 6.31763 9.375 5.4375C9.375 4.30013 8.44987 3.375 7.3125 3.375H5.38538C2.62275 3.375 0.375 5.62275 0.375 8.38538C0.375 10.2956 1.43625 12.0127 3.14438 12.867L3.375 12.9821V13.6151L3.15075 13.6991C1.51575 14.3126 0.411375 15.8835 0.378 17.625H0.375V23.625H7.875V21.4766L9.375 20.9393V23.625H14.25C14.8702 23.625 15.375 23.1203 15.375 22.5V16.875H16.194C16.152 16.9928 16.125 17.118 16.125 17.25V21.75C16.125 22.3703 16.6297 22.875 17.25 22.875H21.75C22.3703 22.875 22.875 22.3703 22.875 21.75V17.25C22.875 17.1019 22.8446 16.9613 22.7925 16.8315C23.2706 16.7017 23.625 16.2686 23.625 15.75V11.25C23.625 10.7314 23.2706 10.2979 22.7925 10.1685ZM16.125 1.125H18.375V2.625H16.125V1.125ZM12.375 1.5C12.375 1.29338 12.5434 1.125 12.75 1.125H15.375V3.375H19.125V1.125H21.75C21.9566 1.125 22.125 1.29338 22.125 1.5V9.75C22.125 9.95662 21.9566 10.125 21.75 10.125H18H16.5H12.75C12.5434 10.125 12.375 9.95662 12.375 9.75V1.5ZM19.875 10.875H20.625V11.625H19.875V10.875ZM13.875 10.875H14.625V11.625H13.875V10.875ZM10.875 13.875H14.25C14.4566 13.875 14.625 14.043 14.625 14.25C14.625 14.457 14.4566 14.625 14.25 14.625H10.875V13.875ZM4.6965 19.8337L10.0433 18.306L10.3133 17.4967C10.3811 17.2927 10.5431 17.1308 10.7471 17.0629C10.9946 16.9807 11.2635 17.0438 11.4488 17.2286L11.8448 17.625H12.4339C12.8149 17.625 13.125 17.9351 13.125 18.3165C13.125 18.6251 12.9172 18.8989 12.5947 18.99L6.5115 21.1688C6.129 21.3053 5.72888 21.375 5.322 21.375H4.81875C4.341 21.375 3.873 21.2745 3.4395 21.0904L4.6965 19.8337ZM9.375 16.6222V17.7172L7.54313 18.2404C7.44412 17.9014 7.32675 17.5695 7.185 17.2481L9.375 16.6222ZM8.229 9.86175L7.125 10.23V11.4701C7.125 11.712 7.03087 11.9392 6.8595 12.1106C6.68887 12.2816 6.46163 12.3757 6.21975 12.3757L4.875 12.375V13.125L5.625 13.1254V14.913C5.178 14.4435 4.67588 14.0273 4.125 13.6759V10.7198L3.48488 10.0796C3.414 10.0087 3.375 9.91425 3.375 9.81413V9.75C3.375 9.54338 3.54338 9.375 3.75 9.375H4.125V8.25C4.125 7.83637 4.46137 7.5 4.875 7.5H6.75H6.83362C7.11675 7.5 7.37288 7.65712 7.50262 7.90987C7.90575 8.69625 8.157 9.375 8.229 9.86175ZM1.125 8.38538C1.125 6.03638 3.03638 4.125 5.38538 4.125H7.3125C8.03625 4.125 8.625 4.71375 8.625 5.4375C8.625 6.16125 8.03625 6.75 7.3125 6.75H6.83362H6.75H4.875C4.04775 6.75 3.375 7.42275 3.375 8.25V8.68913C2.9385 8.844 2.625 9.261 2.625 9.75V9.81413C2.625 10.1145 2.742 10.3973 2.95463 10.6099L3.375 11.0302V12.1339C1.98637 11.3899 1.125 9.96825 1.125 8.38538ZM3.41437 14.4015L3.70163 14.2935C5.20762 15.2475 6.32363 16.7374 6.82312 18.4462L4.74225 19.0406L4.5945 18.5978C4.24762 17.5575 3.405 16.7771 2.34075 16.5112L2.15887 17.2388C2.973 17.4424 3.61762 18.0394 3.88312 18.8355L4.071 19.3991L2.75925 20.7109C2.67825 20.6528 2.59913 20.5912 2.523 20.526L2.35725 20.3839C1.57425 19.7122 1.125 18.7361 1.125 17.7049C1.125 16.2424 2.04487 14.9149 3.41437 14.4015ZM7.125 22.875H1.125V20.1143C1.33463 20.421 1.58063 20.7056 1.869 20.9528L2.03475 21.0949C2.8095 21.759 3.798 22.125 4.81875 22.125H5.322C5.81512 22.125 6.30037 22.0406 6.76462 21.8745L7.125 21.7455V22.875ZM14.25 22.875H10.125V20.6704L12.8224 19.704C13.4423 19.5304 13.875 18.96 13.875 18.3165C13.875 17.5219 13.2285 16.875 12.4339 16.875H12.1553L11.9786 16.6984C11.5916 16.311 11.0287 16.1779 10.5097 16.3511C10.3691 16.398 10.2428 16.473 10.125 16.5589V15.375H14.25C14.382 15.375 14.5072 15.348 14.625 15.306V22.5C14.625 22.707 14.4566 22.875 14.25 22.875ZM15.375 14.25C15.375 13.6298 14.8702 13.125 14.25 13.125H11.625V11.25C11.625 11.0434 11.7934 10.875 12 10.875H12.75H13.125V12.375H15.375V10.875H16.5C16.7066 10.875 16.875 11.0434 16.875 11.25V15.75C16.875 15.957 16.7066 16.125 16.5 16.125H15.375V14.25ZM22.125 21.75C22.125 21.957 21.9566 22.125 21.75 22.125H17.25C17.0434 22.125 16.875 21.957 16.875 21.75V17.25C16.875 17.043 17.0434 16.875 17.25 16.875H18H18.375V18.375H20.625V16.875H21.75C21.9566 16.875 22.125 17.043 22.125 17.25V21.75ZM19.125 16.875H19.875V17.625H19.125V16.875ZM22.875 15.75C22.875 15.957 22.7066 16.125 22.5 16.125H21.75H18C17.7934 16.125 17.625 15.957 17.625 15.75V11.25C17.625 11.0434 17.7934 10.875 18 10.875H19.125V12.375H21.375V10.875H21.75H22.5C22.7066 10.875 22.875 11.0434 22.875 11.25V15.75Z" fill="black"/>
<path d="M19.125 8.625H19.875V9.375H19.125V8.625Z" fill="black"/>
<path d="M17.625 8.625H18.375V9.375H17.625V8.625Z" fill="black"/>
<path d="M20.625 8.625H21.375V9.375H20.625V8.625Z" fill="black"/>
<path d="M17.625 7.125H21.375V7.875H17.625V7.125Z" fill="black"/>
</svg>
