<svg width="24" height="24" viewBox="0 0 24 24" fill="none" xmlns="http://www.w3.org/2000/svg">
<path d="M11.9999 0C7.16182 0 3.22577 4.00678 3.22577 8.9318C3.22577 11.6866 4.61908 15.0304 7.36713 18.8701C9.37816 21.6802 11.3598 23.6842 11.4432 23.7682C11.5965 23.9226 11.7982 24 12.0001 24C12.1961 24 12.3923 23.9269 12.5443 23.7804C12.6279 23.7 14.6146 21.777 16.6294 19.0057C19.3797 15.2229 20.7742 11.8335 20.7742 8.93175C20.7741 4.00678 16.8379 0 11.9999 0ZM11.9999 12.7878C9.63461 12.7878 7.71035 10.8635 7.71035 8.4982C7.71035 6.13294 9.63466 4.20862 11.9999 4.20862C14.3652 4.20862 16.2895 6.13294 16.2895 8.4982C16.2895 10.8635 14.3651 12.7878 11.9999 12.7878Z" fill="white"/>
</svg>
