<svg width="24" height="24" viewBox="0 0 24 24" fill="none" xmlns="http://www.w3.org/2000/svg">
<path d="M11.9505 0.375C9.73826 0.375 7.94501 2.1683 7.94501 4.38056V6.00014C8.21271 5.75199 8.59357 5.61717 8.96534 5.66681V5.46722C8.96534 5.30855 9.10081 5.18325 9.25788 5.19511C10.8065 5.30634 12.3826 4.81425 13.5743 4.03575C13.6856 3.96305 13.8329 3.98114 13.9233 4.07831C14.9421 5.17341 14.9359 5.13103 14.9359 5.27405V5.66602C15.3434 5.60494 15.7049 5.73084 15.9561 5.96433V4.38061C15.9561 2.16834 14.1628 0.375 11.9505 0.375Z" fill="#707487"/>
<path d="M8.88255 4.38061C8.88255 2.32702 10.4281 0.635484 12.4193 0.403266C12.2654 0.385266 12.1092 0.375 11.9505 0.375C9.73825 0.375 7.94501 2.1683 7.94501 4.38056V6.00019C8.19283 5.77045 8.53774 5.63812 8.88255 5.65912V4.38061Z" fill="#5B5D6E"/>
<path d="M14.9306 5.52077V7.72356C14.9306 7.74742 14.9293 7.771 14.9288 7.79481C15.7083 7.91284 16.3188 7.34959 16.3188 6.65791C16.3188 5.96477 15.7078 5.40429 14.9306 5.52077Z" fill="#F0A479"/>
<path d="M15.8754 5.75289C15.6291 5.56234 15.2985 5.46559 14.9306 5.52077V7.72356C14.9306 7.74742 14.9293 7.771 14.9288 7.79481C15.2978 7.85069 15.6289 7.7537 15.8753 7.56283V5.75294H15.8754V5.75289Z" fill="#E59770"/>
<path d="M8.97422 7.72661V5.51907C8.29383 5.42822 7.58246 5.95037 7.58246 6.65818C7.58246 7.35076 8.19319 7.91645 8.97596 7.79795C8.9754 7.77418 8.97422 7.75047 8.97422 7.72661Z" fill="#F0A479"/>
<path d="M8.97422 7.57308C8.69363 7.36041 8.52001 7.02736 8.52001 6.65818C8.52001 6.29836 8.70404 5.98674 8.97422 5.77899V5.51907C8.29383 5.42822 7.58246 5.95041 7.58246 6.65818C7.58246 7.35075 8.19319 7.91644 8.97596 7.79794C8.9754 7.77413 8.97422 7.75036 8.97422 7.72655V7.57308Z" fill="#E59770"/>
<path d="M11.9933 10.5217C11.3461 10.5217 10.7774 10.344 10.3123 10.0468V11.6878L11.986 13.7538L13.6598 11.6878V10.0024C13.1857 10.3295 12.6116 10.5217 11.9933 10.5217Z" fill="#F0A479"/>
<path d="M11.2681 10.4425C10.9152 10.3631 10.5946 10.2272 10.3123 10.0469V11.6879L11.2681 12.8677V10.4425Z" fill="#E59770"/>
<path d="M18.0876 13.2621L13.6597 11.5474L11.986 13.6133L10.3123 11.5474L5.88914 13.2621C5.88914 13.2621 4.25146 13.9354 4.25146 15.8023C4.25146 17.4916 4.25146 21.7617 4.25146 23.1263C4.25146 23.4276 4.49578 23.672 4.79718 23.672C5.02682 23.672 18.9464 23.672 19.1796 23.672C19.4809 23.672 19.7253 23.4277 19.7253 23.1263C19.7253 21.7616 19.7253 17.4915 19.7253 15.8023C19.7252 13.9354 18.0876 13.2621 18.0876 13.2621Z" fill="#E4EAF8"/>
<path d="M5.18573 23.1261C5.18573 21.7614 5.18573 16.9756 5.18573 15.2864C5.18573 14.2035 5.73656 13.5228 6.19936 13.1416L5.88914 13.2619C5.88914 13.2619 4.25146 13.9351 4.25146 15.802C4.25146 17.4913 4.25146 21.7614 4.25146 23.126C4.25146 23.4274 4.49582 23.6717 4.79718 23.6717C4.83159 23.6717 5.17392 23.6717 5.73145 23.6717C5.43014 23.6718 5.18573 23.4274 5.18573 23.1261Z" fill="#D8DCE5"/>
<path d="M13.9233 3.93757C13.8329 3.8404 13.6856 3.82235 13.5744 3.89501C12.3827 4.67346 10.8066 5.1656 9.25794 5.05432C9.10086 5.04242 8.96539 5.16776 8.96539 5.32639V7.71935C8.96539 9.25732 10.1705 10.662 11.9933 10.662C13.6159 10.662 14.936 9.34193 14.936 7.71935V5.13321C14.936 4.99024 14.9421 5.03267 13.9233 3.93757Z" fill="#F0A479"/>
<path d="M9.90294 7.71953V5.0664C9.68816 5.07334 9.47277 5.06992 9.25794 5.05449C9.10086 5.04259 8.96539 5.16793 8.96539 5.3266V7.71957C8.96539 9.25754 10.1705 10.6622 11.9933 10.6622C12.138 10.6622 12.2802 10.6513 12.4195 10.631C10.9982 10.4238 9.90294 9.19735 9.90294 7.71953Z" fill="#E59770"/>
<path d="M14.007 14.6749L15.2586 12.1665L13.6599 11.5474L11.9861 13.6133L13.618 14.7722C13.75 14.8661 13.9347 14.8199 14.007 14.6749Z" fill="#D8DCE5"/>
<path d="M9.96749 14.6749L8.71588 12.1665L10.3146 11.5474L11.9884 13.6133L10.3566 14.7722C10.2245 14.8661 10.0398 14.8199 9.96749 14.6749Z" fill="#D8DCE5"/>
<path d="M13.6883 21.6452L12.6141 15.2866H11.9882H11.9862H11.3603L10.2861 21.6452C10.2748 21.7271 10.2989 21.8103 10.3501 21.8667L11.8331 23.5012C11.9157 23.5923 12.0587 23.5923 12.1413 23.5012L13.6244 21.8667C13.6755 21.8103 13.6995 21.7271 13.6883 21.6452Z" fill="#FF5050"/>
<path d="M11.9882 13.6147V13.6133L11.9872 13.614L11.9862 13.6133V13.6147L10.7993 14.4576L11.3604 15.302H11.9862H11.9882H12.6141L13.1751 14.4576L11.9882 13.6147Z" fill="#ED3A3A"/>
<path d="M11.2876 21.8667C11.2364 21.8102 11.2124 21.7271 11.2237 21.6452L12.2979 15.2866H11.9882H11.9862H11.3603L10.2861 21.6452C10.2748 21.7271 10.2988 21.8103 10.3501 21.8667L11.8331 23.5012C11.9157 23.5923 12.0587 23.5923 12.1413 23.5012L12.4559 23.1544L11.2876 21.8667Z" fill="#ED3A3A"/>
<path d="M12.456 13.9464L11.9882 13.6142V13.6128L11.9872 13.6135L11.9862 13.6128V13.6142L10.7993 14.4572L11.3603 15.3015H11.9862H11.9882H12.2978L11.8118 14.5701C11.77 14.5072 11.7857 14.4224 11.8473 14.3786L12.456 13.9464Z" fill="#DB2A2A"/>
<path d="M19.7368 18.5082C19.931 18.5082 20.0884 18.3508 20.0884 18.1567V15.7787C20.0884 13.7001 18.3086 12.9445 18.2328 12.9133C18.2306 12.9124 18.2284 12.9115 18.2261 12.9106L14.0229 11.2829V10.2971C14.6905 9.77789 15.1534 9.00825 15.2696 8.13019C15.6025 8.10675 15.9113 7.98244 16.1636 7.76555C16.493 7.48228 16.682 7.07002 16.682 6.63464C16.682 6.27333 16.5516 5.92833 16.3193 5.6595V4.35717C16.3192 1.95464 14.3646 0 11.9621 0C9.55958 0 7.60498 1.95464 7.60498 4.35717V5.69362C7.37019 5.95973 7.2425 6.2873 7.2425 6.63459C7.2425 7.07011 7.4314 7.48233 7.76089 7.76564C8.01293 7.98244 8.32161 8.10661 8.65437 8.13009C8.77151 9.02461 9.2479 9.82294 9.97236 10.3491V11.2829L5.77372 12.9106C5.77151 12.9114 5.76931 12.9123 5.76711 12.9132C5.69131 12.9444 3.91156 13.7 3.91156 15.7786V23.1026C3.91156 23.5973 4.31408 23.9999 4.80884 23.9999H8.15839C8.35254 23.9999 8.50995 23.8425 8.50995 23.6483C8.50995 23.4541 8.35254 23.2967 8.15839 23.2967H7.40197V16.3735C7.40197 16.1793 7.24456 16.0219 7.0504 16.0219C6.85625 16.0219 6.69884 16.1793 6.69884 16.3735V23.2968H4.80889C4.70187 23.2968 4.61478 23.2097 4.61478 23.1027V15.7786C4.61478 14.1957 5.95039 13.5996 6.03242 13.5645L8.55589 12.5863L9.66458 14.8082C9.77065 15.0207 9.98604 15.149 10.2156 15.149C10.4407 15.149 10.5601 15.0436 10.719 14.9308L11.0022 15.357L9.95117 21.5665C9.95056 21.57 9.95004 21.5735 9.94953 21.5771C9.92412 21.761 9.98098 21.9501 10.1016 22.0828L11.2052 23.2969H9.79915C9.605 23.2969 9.44759 23.4543 9.44759 23.6484C9.44759 23.8426 9.605 24 9.79915 24H19.1913C19.686 24 20.0885 23.5975 20.0885 23.1027V19.7974C20.0885 19.6032 19.9311 19.4458 19.737 19.4458C19.5428 19.4458 19.3854 19.6032 19.3854 19.7974V23.1027C19.3854 23.2097 19.2983 23.2968 19.1913 23.2968H17.3015V16.3735C17.3015 16.1793 17.144 16.0219 16.9499 16.0219C16.7557 16.0219 16.5983 16.1793 16.5983 16.3735V23.2968H12.7928L13.8964 22.0828C14.0169 21.9501 14.0738 21.7612 14.0484 21.5771C14.048 21.5736 14.0474 21.57 14.0468 21.5664L12.9956 15.357L13.2788 14.9308C13.4353 15.042 13.556 15.149 13.7821 15.149C14.0122 15.149 14.2273 15.0203 14.3331 14.8083V14.8082L15.4417 12.5864L17.9672 13.5644C18.0585 13.6036 19.3852 14.2011 19.3852 15.7787V18.1567C19.3852 18.3508 19.5426 18.5082 19.7368 18.5082ZM15.7051 7.23239C15.5901 7.3313 15.4512 7.39453 15.2991 7.41928V5.85005C15.7032 5.91567 15.9788 6.25087 15.9788 6.63459C15.9787 6.86494 15.879 7.08281 15.7051 7.23239ZM8.30815 4.35717C8.30815 2.34234 9.94728 0.703172 11.9621 0.703172C13.9769 0.703172 15.6161 2.34234 15.6161 4.35717V5.20294C15.5139 5.17186 15.4079 5.15133 15.2991 5.14167C15.2991 4.80244 15.302 4.86787 14.1923 3.67477C13.9882 3.45548 13.6506 3.40955 13.3937 3.57741C12.1688 4.37752 10.6747 4.77947 9.29609 4.68047C8.99384 4.65783 8.71836 4.857 8.64425 5.15138C8.53226 5.16422 8.40392 5.19455 8.30825 5.22708V4.35717H8.30815ZM7.94562 6.63459C7.94562 6.2588 8.2572 5.95284 8.62531 5.86777V7.41933C8.21665 7.353 7.94562 7.01512 7.94562 6.63459ZM9.32848 7.69613V5.50275V5.3872C10.8461 5.47608 12.4371 5.02523 13.7225 4.20206C14.2315 4.74853 14.5071 5.03517 14.596 5.1442C14.596 5.42002 14.596 7.38037 14.596 7.69608C14.596 9.12328 13.4322 10.2871 12.0049 10.2871C10.402 10.2872 9.32848 9.04378 9.32848 7.69613ZM12.0048 10.9904C12.4657 10.9904 12.9177 10.8921 13.3197 10.7163V11.3992L11.9988 13.0297L10.6754 11.3963V10.7384C11.1026 10.9105 11.559 10.9904 12.0048 10.9904ZM9.21434 12.3314L10.2125 11.9448L11.4894 13.521C10.8401 13.9821 10.3068 14.3609 10.2479 14.4028L9.21434 12.3314ZM11.9988 23.1246L10.6513 21.6423L11.6689 15.63H12.3285L13.3461 21.6423L11.9988 23.1246ZM12.4371 14.9268H11.5604L11.2924 14.5234L11.9988 14.0217L12.7052 14.5234L12.4371 14.9268ZM13.7496 14.4028C13.7239 14.3845 13.1762 13.9954 12.5066 13.5199C12.7971 13.1613 12.4572 13.5808 13.7832 11.9441L14.7831 12.3314L13.7496 14.4028Z" fill="black"/>
<path d="M19.7368 18.5082C19.931 18.5082 20.0884 18.3508 20.0884 18.1567V15.7787C20.0884 13.7001 18.3086 12.9445 18.2328 12.9133C18.2306 12.9124 18.2284 12.9115 18.2261 12.9106L14.0229 11.2829V10.2971C14.6905 9.77789 15.1534 9.00825 15.2696 8.13019C15.6025 8.10675 15.9113 7.98244 16.1636 7.76555C16.493 7.48228 16.682 7.07002 16.682 6.63464C16.682 6.27333 16.5516 5.92833 16.3193 5.6595V4.35717C16.3192 1.95464 14.3646 0 11.9621 0C9.55958 0 7.60498 1.95464 7.60498 4.35717V5.69362C7.37019 5.95973 7.2425 6.2873 7.2425 6.63459C7.2425 7.07011 7.4314 7.48233 7.76089 7.76564C8.01293 7.98244 8.32161 8.10661 8.65437 8.13009C8.77151 9.02461 9.2479 9.82294 9.97236 10.3491V11.2829L5.77372 12.9106C5.77151 12.9114 5.76931 12.9123 5.76711 12.9132C5.69131 12.9444 3.91156 13.7 3.91156 15.7786V23.1026C3.91156 23.5973 4.31408 23.9999 4.80884 23.9999H8.15839C8.35254 23.9999 8.50995 23.8425 8.50995 23.6483C8.50995 23.4541 8.35254 23.2967 8.15839 23.2967H7.40197V16.3735C7.40197 16.1793 7.24456 16.0219 7.0504 16.0219C6.85625 16.0219 6.69884 16.1793 6.69884 16.3735V23.2968H4.80889C4.70187 23.2968 4.61478 23.2097 4.61478 23.1027V15.7786C4.61478 14.1957 5.95039 13.5996 6.03242 13.5645L8.55589 12.5863L9.66458 14.8082C9.77065 15.0207 9.98604 15.149 10.2156 15.149C10.4407 15.149 10.5601 15.0436 10.719 14.9308L11.0022 15.357L9.95117 21.5665C9.95056 21.57 9.95004 21.5735 9.94953 21.5771C9.92412 21.761 9.98098 21.9501 10.1016 22.0828L11.2052 23.2969H9.79915C9.605 23.2969 9.44759 23.4543 9.44759 23.6484C9.44759 23.8426 9.605 24 9.79915 24H19.1913C19.686 24 20.0885 23.5975 20.0885 23.1027V19.7974C20.0885 19.6032 19.9311 19.4458 19.737 19.4458C19.5428 19.4458 19.3854 19.6032 19.3854 19.7974V23.1027C19.3854 23.2097 19.2983 23.2968 19.1913 23.2968H17.3015V16.3735C17.3015 16.1793 17.144 16.0219 16.9499 16.0219C16.7557 16.0219 16.5983 16.1793 16.5983 16.3735V23.2968H12.7928L13.8964 22.0828C14.0169 21.9501 14.0738 21.7612 14.0484 21.5771C14.048 21.5736 14.0474 21.57 14.0468 21.5664L12.9956 15.357L13.2788 14.9308C13.4353 15.042 13.556 15.149 13.7821 15.149C14.0122 15.149 14.2273 15.0203 14.3331 14.8083V14.8082L15.4417 12.5864L17.9672 13.5644C18.0585 13.6036 19.3852 14.2011 19.3852 15.7787V18.1567C19.3852 18.3508 19.5426 18.5082 19.7368 18.5082ZM15.7051 7.23239C15.5901 7.3313 15.4512 7.39453 15.2991 7.41928V5.85005C15.7032 5.91567 15.9788 6.25087 15.9788 6.63459C15.9787 6.86494 15.879 7.08281 15.7051 7.23239ZM8.30815 4.35717C8.30815 2.34234 9.94728 0.703172 11.9621 0.703172C13.9769 0.703172 15.6161 2.34234 15.6161 4.35717V5.20294C15.5139 5.17186 15.4079 5.15133 15.2991 5.14167C15.2991 4.80244 15.302 4.86787 14.1923 3.67477C13.9882 3.45548 13.6506 3.40955 13.3937 3.57741C12.1688 4.37752 10.6747 4.77947 9.29609 4.68047C8.99384 4.65783 8.71836 4.857 8.64425 5.15138C8.53226 5.16422 8.40392 5.19455 8.30825 5.22708V4.35717H8.30815ZM7.94562 6.63459C7.94562 6.2588 8.2572 5.95284 8.62531 5.86777V7.41933C8.21665 7.353 7.94562 7.01512 7.94562 6.63459ZM9.32848 7.69613V5.50275V5.3872C10.8461 5.47608 12.4371 5.02523 13.7225 4.20206C14.2315 4.74853 14.5071 5.03517 14.596 5.1442C14.596 5.42002 14.596 7.38037 14.596 7.69608C14.596 9.12328 13.4322 10.2871 12.0049 10.2871C10.402 10.2872 9.32848 9.04378 9.32848 7.69613ZM12.0048 10.9904C12.4657 10.9904 12.9177 10.8921 13.3197 10.7163V11.3992L11.9988 13.0297L10.6754 11.3963V10.7384C11.1026 10.9105 11.559 10.9904 12.0048 10.9904ZM9.21434 12.3314L10.2125 11.9448L11.4894 13.521C10.8401 13.9821 10.3068 14.3609 10.2479 14.4028L9.21434 12.3314ZM11.9988 23.1246L10.6513 21.6423L11.6689 15.63H12.3285L13.3461 21.6423L11.9988 23.1246ZM12.4371 14.9268H11.5604L11.2924 14.5234L11.9988 14.0217L12.7052 14.5234L12.4371 14.9268ZM13.7496 14.4028C13.7239 14.3845 13.1762 13.9954 12.5066 13.5199C12.7971 13.1613 12.4572 13.5808 13.7832 11.9441L14.7831 12.3314L13.7496 14.4028Z" fill="black"/>
</svg>
