<svg width="24" height="24" viewBox="0 0 24 24" fill="none" xmlns="http://www.w3.org/2000/svg">
<path fill-rule="evenodd" clip-rule="evenodd" d="M4.69 6.52505L2.01 3.84505L3.42 2.42505L21.15 20.1651L19.74 21.5751L16.32 18.1551C14.98 18.6851 13.52 18.9751 12 18.9751C7 18.9751 2.73 15.8651 1 11.4751C1.77 9.50505 3.06 7.80505 4.69 6.52505ZM12 5.97505C15.79 5.97505 19.17 8.10505 20.82 11.4751C20.23 12.6951 19.4 13.7451 18.41 14.5951L19.82 16.0051C21.21 14.7751 22.31 13.2351 23 11.4751C21.27 7.08505 17 3.97505 12 3.97505C10.73 3.97505 9.51 4.17505 8.36 4.54505L10.01 6.19505C10.66 6.06505 11.32 5.97505 12 5.97505ZM10.93 7.11505L13 9.18505C13.57 9.43505 14.03 9.89505 14.28 10.4651L16.35 12.5351C16.43 12.1951 16.49 11.8351 16.49 11.4651C16.5 8.98505 14.48 6.97505 12 6.97505C11.63 6.97505 11.28 7.02505 10.93 7.11505ZM9.51 11.3451L12.12 13.9551C12.08 13.9651 12.04 13.9751 12 13.9751C10.62 13.9751 9.5 12.8551 9.5 11.4751C9.5 11.4501 9.5025 11.4301 9.505 11.4101C9.5075 11.3901 9.51 11.3701 9.51 11.3451ZM7.86 9.69505L6.11 7.94505C4.9 8.86505 3.88 10.0451 3.18 11.4751C4.83 14.8451 8.21 16.9751 12 16.9751C12.95 16.9751 13.87 16.8351 14.75 16.5951L13.77 15.6151C13.23 15.8451 12.63 15.9751 12 15.9751C9.52 15.9751 7.5 13.9551 7.5 11.4751C7.5 10.8451 7.63 10.2451 7.86 9.69505Z" fill="#12BC56"/>
</svg>
