<svg width="16" height="21" viewBox="0 0 16 21" fill="none" xmlns="http://www.w3.org/2000/svg">
<path d="M15.0571 19.4705L13.3133 7.74241C13.2432 7.27025 12.9024 6.92656 12.5044 6.92656H9.60434C10.1481 6.28091 10.486 5.38396 10.486 4.39336C10.486 2.43177 9.16222 0.835938 7.53503 0.835938C5.90784 0.835938 4.58399 2.43177 4.58399 4.39336C4.58399 5.38396 4.92191 6.28091 5.46566 6.92656H2.56558C2.16761 6.92656 1.8269 7.27025 1.75666 7.74241L0.0128875 19.4705C-0.0300097 19.7593 0.0353497 20.0561 0.191544 20.281C0.347683 20.506 0.578496 20.6359 0.8218 20.6359H14.2482C14.4915 20.6359 14.7223 20.506 14.8785 20.281C15.0346 20.0561 15.1 19.7593 15.0571 19.4705ZM7.53503 2.81727C8.25595 2.81727 8.84244 3.52428 8.84244 4.39336C8.84244 5.26244 8.25595 5.96951 7.53503 5.96951C6.8141 5.96951 6.22757 5.26244 6.22757 4.39336C6.22757 3.52428 6.8141 2.81727 7.53503 2.81727ZM7.32027 16.1666C7.27748 16.2617 7.19486 16.3209 7.10512 16.3209H6.71746C6.63057 16.3209 6.55015 16.2654 6.50621 16.175L5.5468 14.2006L4.93325 14.9556V15.8648C4.93325 16.1167 4.76386 16.3209 4.5549 16.3209C4.34595 16.3209 4.17655 16.1167 4.17655 15.8648V12.259C4.17655 12.0071 4.34595 11.8029 4.5549 11.8029C4.76386 11.8029 4.93325 12.0071 4.93325 12.259V13.8091L6.3894 11.8983C6.43575 11.8375 6.50117 11.8029 6.56965 11.8029H6.90236C7.00065 11.8029 7.08935 11.8737 7.12775 11.9827C7.1661 12.0918 7.14665 12.2179 7.07839 12.303L6.06836 13.5625L7.31035 15.8649C7.35928 15.9557 7.36311 16.0714 7.32027 16.1666ZM11.0481 15.5649C11.0481 15.6546 11.0141 15.7398 10.956 15.7957C10.805 15.941 10.606 16.0713 10.3592 16.1868C10.0583 16.3275 9.75363 16.3979 9.44519 16.3979C9.05314 16.3979 8.71155 16.2988 8.41998 16.1005C8.12863 15.9023 7.90954 15.6187 7.76299 15.2499C7.61639 14.8811 7.54314 14.48 7.54314 14.0464C7.54314 13.576 7.62493 13.1578 7.78858 12.7922C7.95217 12.4264 8.19164 12.1461 8.50698 11.9508C8.74716 11.8008 9.04635 11.7257 9.40427 11.7257C9.86956 11.7257 10.233 11.8434 10.4946 12.0787C10.608 12.1806 10.7038 12.2994 10.7821 12.4351C10.8569 12.5647 10.8721 12.7312 10.8224 12.8773C10.7728 13.0235 10.6652 13.1295 10.5364 13.1585L10.5355 13.1587C10.3846 13.1927 10.2316 13.1122 10.15 12.9555C10.0977 12.8552 10.031 12.7694 9.9501 12.6981C9.80431 12.5697 9.62237 12.5055 9.40427 12.5055C9.07358 12.5055 8.81066 12.6319 8.61562 12.8845C8.42048 13.1373 8.3229 13.5122 8.3229 14.0094C8.3229 14.5457 8.42168 14.9479 8.61946 15.216C8.81713 15.4841 9.07615 15.6181 9.39665 15.6181C9.55509 15.6181 9.71402 15.5807 9.8734 15.5057C10.0327 15.4306 10.1695 15.3397 10.2837 15.233V14.6596H9.73282C9.55843 14.6596 9.41714 14.4892 9.41714 14.2791C9.41714 14.0689 9.55849 13.8985 9.73282 13.8985H10.8033C10.9385 13.8985 11.0481 14.0307 11.0481 14.1936V15.5649Z" fill="#12BC56"/>
</svg>
